<?xml version="1.0" encoding="UTF-8" standalone="no"?>
<!-- Created with Inkscape (http://www.inkscape.org/) -->

<svg
   version="1.1"
   id="svg63"
   width="350"
   height="350"
   viewBox="0 0 350 350"
   xmlns="http://www.w3.org/2000/svg"
   xmlns:svg="http://www.w3.org/2000/svg">
  <defs
     id="defs67" />
  <g
     id="g69">
    <g
       id="g679"
       transform="translate(-0.37478904,4.1872048)">
      <path
         style="fill:#cbcbcb;stroke-width:0.500088"
         d="m 8.983703,328.9341 c 0.015834,-0.2016 1.512614,-1.60427 3.326181,-3.11703 4.700963,-3.92125 17.892459,-17.16137 24.681632,-24.7726 8.91206,-9.99116 18.219425,-21.32093 26.198029,-31.89061 l 1.436951,-1.90361 -3.956603,2.71228 c -15.110596,10.35844 -31.840066,18.49374 -44.791903,21.78167 -5.241549,1.33061 -10.8797318,2.34552 -10.3841648,1.86922 0.1157872,-0.11129 2.5734365,-1.25935 5.4614428,-2.55127 15.144355,-6.77465 29.618395,-16.81283 41.784735,-28.97896 9.464244,-9.46408 14.269335,-15.54844 28.942176,-36.64748 11.468137,-16.4908 32.039231,-34.22468 45.999171,-39.65487 l 4.33163,-1.68494 -5.01422,-5.03134 -5.01422,-5.03135 5.3248,-13.14695 c 3.20204,-7.90585 5.54975,-13.06063 5.88908,-12.93042 0.31035,0.11909 1.4548,-1.44636 2.54321,-3.47878 2.15867,-4.03096 2.11189,-4.74705 -0.40341,-6.17552 -2.93687,-1.66789 -11.58705,1.38585 -21.72707,7.67022 -9.48806,5.8803 -24.337912,17.34128 -37.287175,28.77789 l -6.893965,6.08865 -1.454834,-1.14853 c -0.800162,-0.63169 -1.467293,-1.39174 -1.482511,-1.68901 -0.02983,-0.5821 5.756246,-9.19816 11.270337,-16.7828 7.611183,-10.46917 15.375191,-19.64589 23.687138,-27.99713 12.38057,-12.43913 21.1652,-18.66992 30.92852,-21.93711 7.98801,-2.67309 15.90649,-2.4881 20.95317,0.48952 l 1.61798,0.95463 3.02999,-4.19717 c 8.59533,-11.90637 21.20506,-26.136883 31.26597,-35.284682 24.50888,-22.284527 48.66134,-35.945532 80.00478,-45.251951 9.37646,-2.784035 9.69902,-2.851441 21.75382,-4.546047 11.2564,-1.58237 28.84957,-2.225763 32.04301,-1.171831 l 1.96295,0.64783 -5e-4,8.296425 c -0.001,12.850403 -1.97196,27.410734 -5.5572,41.052167 -1.6365,6.22668 -7.14563,23.128789 -8.06852,24.754337 -0.31231,0.550098 -2.34528,4.600812 -4.5177,9.001582 -6.14463,12.44743 -12.11352,22.148 -20.30887,33.00579 -12.53688,16.60972 -30.77466,33.97981 -49.71972,47.35424 -2.80156,1.97778 -5.18283,3.66077 -5.29172,3.73997 -0.10889,0.0792 0.42434,1.5307 1.18495,3.22555 1.77513,3.95552 2.19377,9.6206 1.09323,14.79366 -3.88637,18.26784 -24.38151,40.03105 -60.01309,63.72621 -4.90847,3.26409 -9.11165,5.9347 -9.34051,5.9347 -0.22885,0 -0.97527,-0.71449 -1.6587,-1.58776 l -1.24261,-1.58777 5.16715,-5.53849 c 16.51278,-17.69946 30.47922,-36.07577 35.75591,-47.04576 3.83395,-7.97062 4.35493,-12.33948 1.68045,-14.09187 -1.19033,-0.77993 -1.49631,-0.67651 -9.58324,3.23912 -4.59451,2.22463 -12.06679,5.62862 -16.60509,7.56441 l -8.25145,3.51963 -5.03815,-5.02015 -5.03816,-5.02014 -0.63146,2.15402 c -1.25364,4.27644 -9.01502,16.99081 -16.27335,26.65831 -4.91825,6.5507 -14.68983,16.88453 -21.01565,22.22485 -2.20679,1.863 -8.96321,7.28275 -15.01428,12.0439 -6.05105,4.76114 -14.039954,11.26251 -17.753108,14.44748 -8.086214,6.936 -23.469961,21.94975 -30.862753,30.12047 -2.936085,3.24505 -5.414004,5.82441 -5.506487,5.73193 -0.255696,-0.25569 6.548203,-12.28992 10.774511,-19.05714 5.465342,-8.75118 13.530451,-20.71459 21.024081,-31.18614 3.614046,-5.05026 6.571,-9.28292 6.571,-9.40592 0,-0.12299 -2.531697,1.99552 -5.625986,4.70781 -20.46006,17.93418 -48.16037,39.98593 -63.14324,50.26725 -6.298444,4.32203 -13.2588663,8.52861 -13.216365,7.98741 z M 114.47342,214.18277 c 0,-0.2927 -0.31777,-0.2441 -0.75014,0.11474 -0.41257,0.34241 -0.75013,0.70046 -0.75013,0.79567 0,0.0952 0.33756,0.0436 0.75013,-0.11473 0.41258,-0.15833 0.75014,-0.51637 0.75014,-0.79568 z m 4.2822,-4.51107 1.4688,-1.62528 -1.62528,1.4688 c -0.89391,0.80784 -1.62529,1.53922 -1.62529,1.62528 0,0.38635 0.41264,0.0462 1.78177,-1.4688 z m 6.28343,-1.7503 c 0.62204,-0.79318 0.60436,-0.81086 -0.18882,-0.18882 -0.83301,0.6533 -1.09793,1.06397 -0.68634,1.06397 0.10385,0 0.49767,-0.39382 0.87516,-0.87515 z m 75.15776,-4.5617 c 41.12563,-21.46301 71.7588,-48.28006 92.43968,-80.92401 4.2461,-6.7023 11.05056,-19.39022 10.78728,-20.11447 -0.092,-0.25305 -10.85663,-11.43055 -23.92142,-24.838899 -13.06479,-13.408344 -26.2296,-26.95509 -29.25513,-30.103881 l -5.50096,-5.725074 -4.25075,1.972577 c -27.89893,12.946628 -55.55162,36.323416 -77.07293,65.155267 -7.91793,10.60756 -15.46146,22.56288 -22.86223,36.23309 l -3.50818,6.48007 11.55981,11.77313 c 10.3577,10.54884 13.18738,13.25089 12.19454,11.64443 -0.17285,-0.27968 0.005,-0.47766 0.39519,-0.43995 0.39021,0.0377 6.98102,-6.17071 14.64624,-13.79648 l 13.93677,-13.86504 3.96631,3.98972 3.96632,3.98971 -5.24059,5.3745 -5.24059,5.37452 5.03826,-4.90416 5.03825,-4.90415 1.36167,1.96489 c 3.39259,4.8955 4.58553,12.31275 3.15163,19.59553 -0.40615,2.06286 -0.70446,3.78588 -0.66291,3.82891 0.2183,0.2261 13.76947,-6.57137 18.07871,-9.06855 21.2872,-12.33576 45.60414,-31.72685 72.37136,-57.71117 3.7909,-3.68003 6.89254,-6.57666 6.89254,-6.43698 0,0.13969 -1.03378,2.12293 -2.2973,4.4072 -13.42704,24.27429 -34.29319,47.02928 -60.87917,66.39008 -11.42389,8.31925 -24.57009,16.29237 -36.97084,22.42266 -5.12819,2.53511 -6.00963,2.82669 -6.88756,2.27841 -0.83669,-0.52253 -1.05612,-0.5001 -1.29896,0.13272 -0.16072,0.4188 -0.60923,0.76146 -0.99672,0.76146 -0.75426,0 2.2408,2.96094 3.02028,2.98587 0.25214,0.008 3.85277,-1.75681 8.0014,-3.92193 z m 26.54629,-63.09472 c -9.08504,-1.86237 -15.83595,-8.13268 -18.28516,-16.98343 -0.90746,-3.2793 -0.79292,-9.73202 0.23522,-13.25232 1.86642,-6.39053 7.21789,-13.405107 12.65992,-16.594353 10.81625,-6.338739 23.63141,-4.95644 31.35101,3.381648 9.25805,9.999815 8.33932,25.094425 -2.1589,35.470235 -6.7592,6.6804 -15.62933,9.65357 -23.80209,7.97822 z m 10.99423,-3.75011 c 11.28728,-2.93996 19.58796,-15.21355 17.84789,-26.39035 -1.07967,-6.93496 -4.85801,-12.190707 -10.91638,-15.184918 -3.28462,-1.623345 -4.32446,-1.886504 -8.18334,-2.070997 -3.49454,-0.167077 -5.1395,0.007 -7.85239,0.831023 -10.46762,3.179447 -17.64277,12.717022 -17.64277,23.451672 0,6.6746 3.89551,13.80042 9.41984,17.23115 4.40978,2.73859 11.60178,3.62369 17.32715,2.13242 z m -115.69881,69.40617 c 0.62204,-0.79317 0.60436,-0.81085 -0.18881,-0.18881 -0.48133,0.37749 -0.87516,0.77131 -0.87516,0.87515 0,0.41159 0.41067,0.14668 1.06397,-0.68634 z m 5.93726,-0.37506 c 0.64599,-0.68763 1.062,-1.25022 0.92448,-1.25022 -0.13753,0 -0.77858,0.56259 -1.42457,1.25022 -0.64599,0.68762 -1.062,1.25022 -0.92447,1.25022 0.13752,0 0.77857,-0.5626 1.42456,-1.25022 z m -3.93691,-2.12537 c 0.62205,-0.79317 0.60436,-0.81086 -0.18881,-0.18882 -0.48133,0.37749 -0.87516,0.77131 -0.87516,0.87516 0,0.41159 0.41067,0.14668 1.06397,-0.68634 z m 8.21912,-1.75031 1.4688,-1.62528 -1.62528,1.4688 c -1.515,1.36913 -1.85516,1.78176 -1.46881,1.78176 0.0861,0 0.81745,-0.73137 1.62529,-1.62528 z m 3.2829,-2.75049 c 0.62205,-0.79316 0.60435,-0.81085 -0.18881,-0.18881 -0.83303,0.6533 -1.09794,1.06397 -0.68634,1.06397 0.10384,0 0.49766,-0.39382 0.87515,-0.87516 z m -6.50114,-2.00034 c 0.62205,-0.79317 0.60435,-0.81086 -0.18881,-0.18882 -0.48134,0.37749 -0.87516,0.77131 -0.87516,0.87516 0,0.41159 0.41067,0.14668 1.06397,-0.68634 z m 2.00035,-2.50045 c 0.62204,-0.79316 0.60436,-0.81085 -0.18881,-0.1888 -0.83302,0.65329 -1.09794,1.06396 -0.68634,1.06396 0.10384,0 0.49766,-0.39382 0.87515,-0.87516 z m 46.94445,-1.27374 c 0,-0.0817 -0.95642,-1.03812 -2.12537,-2.12537 l -2.12537,-1.97683 1.97682,2.12537 c 1.83842,1.97658 2.27392,2.35519 2.27392,1.97683 z m -2.72441,-9.20972 c 0.19826,-1.54468 0.10641,-3.26175 -0.22541,-4.2136 -0.4905,-1.40704 -0.42144,-1.76635 0.55617,-2.89388 0.61392,-0.70805 -0.73334,0.50678 -2.99391,2.69962 l -4.11012,3.987 2.60605,2.63883 c 2.57085,2.6032 2.61434,2.62364 3.21933,1.51398 0.33729,-0.61868 0.76384,-2.29805 0.94789,-3.73195 z m -45.08359,-8.79189 c -1.34794,-1.4561 -2.54976,-2.57611 -2.67071,-2.48892 -0.22862,0.16482 4.51637,5.13636 4.90231,5.13636 0.12057,0 -0.88365,-1.19135 -2.2316,-2.64744 z m 8.56605,-14.84062 c -2.17928,-2.19212 -4.03551,-3.91249 -4.12497,-3.82303 -0.18132,0.18133 7.47256,7.78822 7.84896,7.80078 0.13108,0.004 -1.54472,-1.78561 -3.72399,-3.97775 z M 272.63573,35.532387 c 15.51161,-1.579636 29.46573,-3.468148 37.29696,-5.047668 10.50254,-2.11831 11.83958,-3.830519 3.23725,-4.145612 -13.10784,-0.480123 -34.41074,3.125076 -51.17065,8.659866 -6.56906,2.169364 -5.80461,2.2077 10.63644,0.533414 z"
         id="path693" />
      <path
         style="fill:#a7a7a7;stroke-width:0.500088"
         d="m 13.455706,325.06516 c 10.771353,-9.87441 24.576903,-24.54194 35.303716,-37.50798 4.385727,-5.30125 14.593888,-18.32568 15.393471,-19.64028 0.214133,-0.35207 -2.497369,1.25464 -6.025573,3.57047 -18.296832,12.00963 -34.095643,19.03628 -48.3905436,21.52209 -2.0952515,0.36435 -3.7086906,0.5616 -3.5854202,0.43834 0.1232705,-0.12327 2.3610431,-1.18653 4.9728278,-2.36279 10.14436,-4.5687 21.682564,-11.64683 30.334699,-18.60888 9.162028,-7.37233 20.197968,-19.04487 28.055313,-29.67362 1.524976,-2.06286 5.42679,-7.57633 8.670687,-12.25215 7.535304,-10.86153 10.168305,-14.08242 17.557063,-21.47711 11.712294,-11.72171 23.642844,-20.18902 33.842384,-24.01851 l 2.35869,-0.88559 -4.90833,-5.23706 -4.90834,-5.23706 3.33801,-8.07873 c 1.8359,-4.44331 4.20595,-10.28112 5.26677,-12.97293 1.32121,-3.35252 2.13661,-4.81442 2.58859,-4.64098 0.65961,0.25311 4.15773,-5.94612 4.15773,-7.36815 0,-0.3715 -0.52084,-1.16476 -1.15743,-1.7628 -5.69953,-5.35443 -30.65597,9.63557 -60.744421,36.48592 l -6.222402,5.55276 -1.510994,-1.51099 -1.510994,-1.511 5.395747,-7.92489 c 16.524152,-24.26951 33.550514,-42.8802 47.627384,-52.05919 12.97853,-8.4628 24.65927,-10.66484 33.31234,-6.28 2.18277,1.1061 2.52171,1.15997 2.91184,0.46284 1.02239,-1.82689 8.39892,-11.47718 12.8346,-16.790754 21.61732,-25.895714 45.18347,-44.079661 75.33296,-58.127866 8.1515,-3.798202 34.22547,-12.093723 39.50693,-12.569259 1.65029,-0.148591 5.25092,-0.617518 8.0014,-1.042062 11.31557,-1.746585 27.05232,-2.362268 31.53412,-1.233738 l 2.2218,0.559456 -0.005,7.817013 c -0.0204,29.877072 -9.51049,62.439961 -26.32754,90.33707 -14.96481,24.8245 -36.14733,47.18381 -62.00327,65.44787 l -5.57165,3.93569 0.92622,1.56983 c 3.69809,6.2678 2.96012,16.35647 -1.90612,26.05803 -4.0693,8.11275 -9.04379,14.53932 -18.46233,23.85156 -7.41857,7.33485 -11.52227,10.82636 -21.92368,18.65315 -7.23325,5.44283 -24.56638,17.25577 -25.31939,17.25577 -0.20186,0 -0.84945,-0.67751 -1.43908,-1.50558 -1.29783,-1.82262 -1.63909,-1.28442 6.22293,-9.81403 22.5551,-24.47032 37.88551,-47.73749 36.61443,-55.57023 -0.29805,-1.83668 -1.56931,-3.62253 -2.57868,-3.62253 -0.3285,0 -3.95052,1.61251 -8.04892,3.58337 -4.0984,1.97085 -11.50235,5.32669 -16.45322,7.45742 l -9.00158,3.87406 -5.00875,-4.95632 -5.00875,-4.95633 -0.87977,2.47705 c -1.7593,4.95342 -10.88906,19.52055 -17.83041,28.4496 -7.79558,10.02788 -15.27204,17.01774 -33.78328,31.58453 -22.043091,17.34606 -34.72487,29.06334 -51.962506,48.01057 l -2.953916,3.24688 2.407486,-4.50079 c 6.818599,-12.74737 23.14632,-37.71744 34.584233,-52.88986 1.194569,-1.58459 2.171941,-2.99736 2.171941,-3.13948 0,-0.14212 -3.20681,2.51319 -7.126247,5.90068 -29.845781,25.79509 -59.921776,49.03573 -72.637732,56.12939 -2.4046044,1.34143 -2.3375197,1.24553 1.750307,-2.50189 z M 117.34712,213.36135 c 3.60541,-1.82 6.28213,-3.82594 13.20515,-9.89594 5.11076,-4.48103 6.79807,-5.66925 5.38968,-3.79546 -0.36178,0.48133 0.85042,-0.58312 2.69378,-2.36546 l 3.35156,-3.24061 -2.72239,-2.72239 -2.72239,-2.72239 -2.28157,1.86957 c -1.25486,1.02827 -4.92643,5.28689 -8.15904,9.46362 -3.23261,4.17672 -7.69913,9.43176 -9.9256,11.67788 -4.1611,4.19782 -4.04771,4.3655 1.17082,1.73118 z m 40.88015,-10.0696 -4.48375,-4.50462 5.61488,-5.61489 5.61489,-5.61488 4.13021,3.98943 4.13022,3.98944 -4.107,-4.22423 -4.107,-4.22424 -5.92947,5.72849 -5.92946,5.7285 4.52562,4.62581 c 2.48909,2.5442 4.6379,4.62581 4.77512,4.62581 0.13722,0 -1.76819,-2.02708 -4.23426,-4.50462 z m 43.08333,-0.47728 c 39.96724,-20.68388 71.07963,-48.111 91.70953,-80.84652 4.41464,-7.00513 10.59063,-18.54693 10.3986,-19.43306 -0.18947,-0.87429 -58.33572,-60.767627 -58.99504,-60.767627 -0.24432,0 -2.97217,1.266025 -6.06188,2.813387 -20.46945,10.251333 -37.97179,23.147779 -54.63729,40.258989 -16.44935,16.889291 -29.95837,35.660581 -42.92707,59.648801 l -3.75974,6.95437 11.82263,12.19417 11.82261,12.19417 11.02622,-10.90185 c 6.06442,-5.99601 12.65987,-12.47106 14.65656,-14.38897 l 3.63034,-3.48713 3.87097,3.88006 3.87098,3.88005 -14.61905,14.27448 -14.61904,14.27448 7.50332,8.1857 c 7.41233,8.08643 15.2865,15.74831 16.18463,15.74831 0.2544,0 4.35962,-2.01681 9.12272,-4.48181 z m -49.32326,-28.98871 c -2.71607,-2.90745 -7.72228,-8.05123 -11.1249,-11.43064 l -6.18659,-6.14437 -2.86425,6.29503 c -1.57534,3.46226 -3.22825,7.20472 -3.67312,8.31657 l -0.80886,2.02154 8.94324,8.9536 8.94323,8.9536 5.85478,-5.83953 5.85478,-5.83953 z m -13.10697,10.09112 -6.3334,-6.37581 4.74639,-6.00106 c 2.61051,-3.30058 4.91297,-6.17022 5.11658,-6.37699 0.2036,-0.20676 3.43607,2.85166 7.18325,6.79651 l 6.81305,7.17244 -5.59624,5.58036 -5.59623,5.58036 z M 271.50095,35.743615 c 20.58315,-2.017739 37.95304,-4.567578 44.14656,-6.480561 12.03684,-3.717801 -10.57038,-4.07864 -29.89406,-0.477146 -8.93861,1.665953 -29.75522,7.444567 -29.75522,8.259938 0,0.126151 1.18146,0.110874 2.62546,-0.03394 1.444,-0.144822 7.23877,-0.715549 12.87726,-1.268283 z"
         id="path691" />
      <path
         style="fill:#e6e000;stroke-width:0.500088"
         d="m 12.955619,325.57185 c 6.599193,-5.97487 20.552952,-20.27764 27.169131,-27.84869 8.858296,-10.13677 24.663627,-29.78666 24.252739,-30.1521 -0.08958,-0.0797 -3.104837,1.79737 -6.700555,4.17121 -16.097051,10.62704 -32.393873,18.05915 -45.629163,20.80901 -5.231805,1.087 -6.3570968,0.93164 -3.0928537,-0.427 10.3694237,-4.31595 25.3958227,-13.6025 34.7560947,-21.47981 2.750482,-2.31472 7.702755,-6.99439 11.005052,-10.39928 8.658643,-8.92765 12.303317,-13.60874 27.40323,-35.19579 11.235915,-16.06303 31.356716,-33.3621 45.380936,-39.01674 2.21407,-0.89272 4.17177,-1.76932 4.35044,-1.94799 0.17867,-0.17867 -1.90348,-2.5616 -4.62702,-5.29539 -4.51137,-4.52838 -4.90948,-5.07927 -4.47529,-6.19302 5.48724,-14.0752 10.08463,-24.76313 10.57439,-24.5831 0.33864,0.1245 1.47201,-1.40468 2.62398,-3.54034 2.14977,-3.98554 2.1587,-5.04963 0.0519,-6.17718 -7.12374,-3.81251 -31.12407,10.84506 -60.519094,36.96046 l -6.238167,5.54216 -1.445943,-1.44594 -1.445944,-1.44594 2.144986,-3.18318 c 14.496018,-21.51229 28.736823,-38.62564 40.721592,-48.93565 4.85492,-4.17649 12.78454,-9.7478 16.63421,-11.6871 9.66176,-4.8672 19.73226,-5.81943 26.53609,-2.50916 1.4612,0.71092 2.71236,1.21289 2.78037,1.11548 2.23307,-3.19851 11.29184,-14.984102 14.35829,-18.680349 10.01185,-12.06809 27.27463,-28.011702 40.71557,-37.604232 12.17941,-8.692195 30.41541,-18.392532 43.50728,-23.142977 9.68974,-3.515971 25.25092,-7.984465 29.75521,-8.544409 2.06287,-0.256442 6.00106,-0.800475 8.75154,-1.208963 8.24942,-1.225163 22.91225,-1.950245 27.66497,-1.368043 2.28847,0.280335 4.31383,0.663446 4.50079,0.85136 0.57295,0.575859 0.30544,17.672069 -0.36785,23.50894 -2.97694,25.807441 -11.39891,50.867619 -24.49252,72.879233 -15.43523,25.94812 -35.15978,46.99453 -62.40263,66.58457 l -6.08863,4.37828 1.17181,2.34198 c 4.12125,8.23668 2.0117,19.63149 -5.87179,31.71671 -9.49274,14.55213 -27.31869,30.51588 -53.31964,47.74954 l -8.68611,5.75723 -1.17263,-1.43374 c -0.64496,-0.78855 -1.17655,-1.54626 -1.18132,-1.68378 -0.005,-0.13752 2.16035,-2.61296 4.81138,-5.50096 23.80391,-25.93179 38.14819,-46.72038 39.04247,-56.58269 0.24401,-2.69097 0.16516,-2.9661 -1.25798,-4.38923 l -1.51831,-1.51831 -9.17543,4.44516 c -9.34828,4.5289 -23.15943,10.53674 -24.22242,10.53674 -0.32313,0 -2.66239,-2.17035 -5.19834,-4.82301 -3.50793,-3.66936 -4.71643,-4.65621 -5.05235,-4.12572 -0.24284,0.3835 -0.44497,0.985 -0.44918,1.33665 -0.0194,1.61831 -6.18005,12.30476 -11.88404,20.61436 -9.77722,14.24351 -18.72758,23.40923 -36.13204,37.00143 -25.283889,19.74572 -37.325852,30.77639 -55.977782,51.27672 l -2.718442,2.98785 2.175892,-4.0007 c 6.648313,-12.22392 17.208264,-28.60942 29.929556,-46.44062 3.89805,-5.46382 7.087354,-10.02422 7.087354,-10.13421 0,-0.11 -4.557049,3.70015 -10.126774,8.467 -25.567483,21.88194 -47.048755,38.77909 -61.135714,48.08932 -10.6674189,7.05022 -11.7005723,7.5523 -7.251272,3.52395 z M 182.45223,212.11027 c 2.59475,-1.13493 4.64526,-2.28854 4.5567,-2.56359 -0.0886,-0.27505 -5.09765,-5.54547 -11.1313,-11.71206 l -10.97027,-11.21196 -6.0518,6.0518 -6.0518,6.0518 8.86865,9.25131 8.86865,9.2513 3.59672,-1.52756 c 1.9782,-0.84015 5.7197,-2.45612 8.31445,-3.59104 z m -65.10511,1.25108 c 3.60541,-1.82 6.28213,-3.82594 13.20515,-9.89594 5.11076,-4.48103 6.79807,-5.66925 5.38968,-3.79546 -0.36178,0.48133 0.85042,-0.58312 2.69378,-2.36546 l 3.35156,-3.24061 -2.72239,-2.72239 -2.72239,-2.72239 -2.28157,1.86957 c -1.25486,1.02827 -4.92643,5.28689 -8.15904,9.46362 -3.23261,4.17672 -7.69913,9.43176 -9.9256,11.67788 -4.1611,4.19782 -4.04771,4.3655 1.17082,1.73118 z m 95.39935,-16.54165 c 9.15249,-5.23533 25.02602,-16.05489 33.50005,-22.83397 9.33134,-7.46492 25.91668,-23.74459 32.55526,-31.95526 8.79063,-10.87235 17.12038,-23.60893 22.6381,-34.6147 l 2.56384,-5.11389 -29.07381,-29.892246 c -15.9906,-16.440729 -29.32353,-30.164143 -29.62873,-30.49647 -0.99924,-1.088037 -14.4905,5.889712 -26.44839,13.679247 -31.2634,20.365391 -56.93169,49.508149 -78.22552,88.814119 l -3.72993,6.88501 1.50683,1.87279 c 0.82875,1.03004 6.19145,6.53809 11.91709,12.24011 l 10.41027,10.36731 14.61138,-14.26953 14.61137,-14.26952 3.39178,3.58349 c 1.86548,1.97093 3.45633,3.75178 3.53522,3.95746 0.0789,0.20568 -6.27848,6.68276 -14.12748,14.39352 -7.849,7.71076 -14.27091,14.25847 -14.27091,14.55046 0,0.29199 5.27072,5.85683 11.71271,12.3663 l 11.71272,11.83541 7.67151,-3.97817 c 4.21933,-2.188 10.14432,-5.39266 13.16664,-7.12147 z m -61.27339,-11.83229 5.97897,-5.80599 -11.10466,-11.44966 c -6.10756,-6.2973 -11.30851,-11.38169 -11.55766,-11.29865 -0.24916,0.0831 -2.11011,3.80937 -4.13545,8.28071 l -3.68244,8.1297 8.87844,8.93759 c 4.88314,4.91567 9.05065,8.95439 9.26113,8.97493 0.21048,0.0205 3.07323,-2.57534 6.36167,-5.76863 z M 267.03252,36.265997 c 29.44353,-2.748031 52.51117,-6.614742 51.83498,-8.688833 -0.42222,-1.295065 -3.59184,-1.795091 -9.60993,-1.516021 -16.8927,0.783346 -32.06189,3.643649 -49.13362,9.26464 -6.94856,2.287867 -7.18541,2.255635 6.90857,0.940214 z"
         id="path689" />
      <path
         style="fill:#e68b00;stroke-width:0.500088"
         d="m 12.955619,325.57185 c 6.599193,-5.97487 20.552952,-20.27764 27.169131,-27.84869 8.858296,-10.13677 24.663627,-29.78666 24.252739,-30.1521 -0.08958,-0.0797 -3.104837,1.79737 -6.700555,4.17121 -16.097051,10.62704 -32.393873,18.05915 -45.629163,20.80901 -5.231805,1.087 -6.3570968,0.93164 -3.0928537,-0.427 10.3694237,-4.31595 25.3958227,-13.6025 34.7560947,-21.47981 2.750482,-2.31472 7.702755,-6.99439 11.005052,-10.39928 8.658643,-8.92765 12.303317,-13.60874 27.40323,-35.19579 11.235915,-16.06303 31.356716,-33.3621 45.380936,-39.01674 2.21407,-0.89272 4.17177,-1.76932 4.35044,-1.94799 0.17867,-0.17867 -1.90348,-2.5616 -4.62702,-5.29539 -4.51137,-4.52838 -4.90948,-5.07927 -4.47529,-6.19302 5.48724,-14.0752 10.08463,-24.76313 10.57439,-24.5831 0.33864,0.1245 1.47201,-1.40468 2.62398,-3.54034 2.14977,-3.98554 2.1587,-5.04963 0.0519,-6.17718 -7.12374,-3.81251 -31.12407,10.84506 -60.519094,36.96046 l -6.238167,5.54216 -1.445943,-1.44594 -1.445944,-1.44594 2.144986,-3.18318 c 14.496018,-21.51229 28.736823,-38.62564 40.721592,-48.93565 4.85492,-4.17649 12.78454,-9.7478 16.63421,-11.6871 9.66176,-4.8672 19.73226,-5.81943 26.53609,-2.50916 1.4612,0.71092 2.71236,1.21289 2.78037,1.11548 2.23307,-3.19851 11.29184,-14.984102 14.35829,-18.680349 10.01185,-12.06809 27.27463,-28.011702 40.71557,-37.604232 12.17941,-8.692195 30.41541,-18.392532 43.50728,-23.142977 9.68974,-3.515971 25.25092,-7.984465 29.75521,-8.544409 2.06287,-0.256442 6.00106,-0.800475 8.75154,-1.208963 8.24942,-1.225163 22.91225,-1.950245 27.66497,-1.368043 2.28847,0.280335 4.31383,0.663446 4.50079,0.85136 0.57295,0.575859 0.30544,17.672069 -0.36785,23.50894 -2.97694,25.807441 -11.39891,50.867619 -24.49252,72.879233 -15.43523,25.94812 -35.15978,46.99453 -62.40263,66.58457 l -6.08863,4.37828 1.17181,2.34198 c 4.12125,8.23668 2.0117,19.63149 -5.87179,31.71671 -9.49274,14.55213 -27.31869,30.51588 -53.31964,47.74954 l -8.68611,5.75723 -1.17263,-1.43374 c -0.64496,-0.78855 -1.17655,-1.54626 -1.18132,-1.68378 -0.005,-0.13752 2.16035,-2.61296 4.81138,-5.50096 23.80391,-25.93179 38.14819,-46.72038 39.04247,-56.58269 0.24401,-2.69097 0.16516,-2.9661 -1.25798,-4.38923 l -1.51831,-1.51831 -9.17543,4.44516 c -9.34828,4.5289 -23.15943,10.53674 -24.22242,10.53674 -0.32313,0 -2.66239,-2.17035 -5.19834,-4.82301 -3.50793,-3.66936 -4.71643,-4.65621 -5.05235,-4.12572 -0.24284,0.3835 -0.44497,0.985 -0.44918,1.33665 -0.0194,1.61831 -6.18005,12.30476 -11.88404,20.61436 -9.77722,14.24351 -18.72758,23.40923 -36.13204,37.00143 -25.283889,19.74572 -37.325852,30.77639 -55.977782,51.27672 l -2.718442,2.98785 2.175892,-4.0007 c 6.648313,-12.22392 17.208264,-28.60942 29.929556,-46.44062 3.89805,-5.46382 7.087354,-10.02422 7.087354,-10.13421 0,-0.11 -4.557049,3.70015 -10.126774,8.467 -25.567483,21.88194 -47.048755,38.77909 -61.135714,48.08932 -10.6674189,7.05022 -11.7005723,7.5523 -7.251272,3.52395 z m 77.013499,-68.44031 c 4.60894,-3.55695 12.588932,-10.52264 20.652552,-18.02747 l 6.9291,-6.44893 -3.11792,-3.14588 -3.11792,-3.14588 -3.25105,4.84397 c -7.40724,11.03661 -13.472424,18.63233 -20.996528,26.29495 -4.648417,4.734 -5.021909,5.2312 -2.849241,3.79302 1.375239,-0.91033 3.963196,-2.78404 5.751007,-4.16378 z m 33.255832,-13.03317 c 10.13434,-8.29196 15.56808,-13.48834 19.34307,-18.49813 3.47996,-4.61826 8.1985,-14.0348 9.03783,-18.0363 0.56704,-2.7034 0.54537,-2.82418 -0.73677,-4.10633 l -1.321,-1.321 -12.73644,12.36325 -12.73644,12.36323 -2.37234,5.34425 c -4.12629,9.29543 -7.12032,14.9182 -11.00267,20.66295 l -3.76956,5.57784 4.14646,-3.90149 c 2.28055,-2.14582 7.74709,-6.84754 12.14786,-10.44827 z m -32.505699,-7.43278 c 3.865708,-1.94744 22.603529,-15.40993 23.526139,-16.90274 0.43911,-0.71049 1.33952,-0.55272 0.91684,0.16065 -0.20372,0.34381 5.75851,-5.32073 13.24939,-12.58787 l 13.61979,-13.21299 -3.34218,-3.36798 -3.34216,-3.36798 -3.81067,2.24592 c -6.52122,3.84345 -8.66869,5.772 -13.0663,11.73435 -10.97035,14.87374 -17.18024,22.98173 -20.08098,26.2189 -3.870831,4.31976 -8.357611,8.39896 -10.399636,9.45494 -0.836539,0.43259 -1.520979,0.90843 -1.520979,1.05743 0,0.38778 1.925072,-0.26103 4.250746,-1.43263 z m 91.732979,-24.55532 c 2.59475,-1.13493 4.64526,-2.28854 4.5567,-2.56359 -0.0886,-0.27505 -5.09765,-5.54547 -11.1313,-11.71206 l -10.97027,-11.21196 -6.0518,6.0518 -6.0518,6.0518 8.86865,9.25131 8.86865,9.2513 3.59672,-1.52756 c 1.9782,-0.84015 5.7197,-2.45612 8.31445,-3.59104 z m 30.29424,-15.29057 c 9.15249,-5.23533 25.02602,-16.05489 33.50005,-22.83397 9.33134,-7.46492 25.91668,-23.74459 32.55526,-31.95526 8.79063,-10.87235 17.12038,-23.60893 22.6381,-34.6147 l 2.56384,-5.11389 -29.07381,-29.892246 c -15.9906,-16.440729 -29.32353,-30.164143 -29.62873,-30.49647 -0.99924,-1.088037 -14.4905,5.889712 -26.44839,13.679247 -31.2634,20.365391 -56.93169,49.508149 -78.22552,88.814119 l -3.72993,6.88501 1.50683,1.87279 c 0.82875,1.03004 6.19145,6.53809 11.91709,12.24011 l 10.41027,10.36731 14.61138,-14.26953 14.61137,-14.26952 3.39178,3.58349 c 1.86548,1.97093 3.45633,3.75178 3.53522,3.95746 0.0789,0.20568 -6.27848,6.68276 -14.12748,14.39352 -7.849,7.71076 -14.27091,14.25847 -14.27091,14.55046 0,0.29199 5.27072,5.85683 11.71271,12.3663 l 11.71272,11.83541 7.67151,-3.97817 c 4.21933,-2.188 10.14432,-5.39266 13.16664,-7.12147 z m -61.27339,-11.83229 5.97897,-5.80599 -11.10466,-11.44966 c -6.10756,-6.2973 -11.30851,-11.38169 -11.55766,-11.29865 -0.24916,0.0831 -2.11011,3.80937 -4.13545,8.28071 l -3.68244,8.1297 8.87844,8.93759 c 4.88314,4.91567 9.05065,8.95439 9.26113,8.97493 0.21048,0.0205 3.07323,-2.57534 6.36167,-5.76863 z M 267.03252,36.265997 c 29.44353,-2.748031 52.51117,-6.614742 51.83498,-8.688833 -0.42222,-1.295065 -3.59184,-1.795091 -9.60993,-1.516021 -16.8927,0.783346 -32.06189,3.643649 -49.13362,9.26464 -6.94856,2.287867 -7.18541,2.255635 6.90857,0.940214 z"
         id="path687" />
      <path
         style="fill:#e53600;stroke-width:0.500088"
         d="m 12.205487,326.27332 c 5.577607,-4.8392 22.501635,-22.1627 29.026254,-29.71138 8.387593,-9.70406 21.510587,-26.04144 23.439396,-29.18071 0.228338,-0.37163 -2.256403,1.10963 -5.52165,3.29171 -15.361343,10.26558 -29.971914,17.36892 -42.415162,20.62134 -10.6456987,2.78257 -10.9025422,2.52855 -1.930334,-1.90907 15.404857,-7.6192 25.278835,-14.70795 37.709512,-27.07249 10.76053,-10.70329 14.074909,-14.86737 29.696458,-37.30971 3.522934,-5.06114 6.438155,-8.40378 13.502371,-15.48204 12.118288,-12.14238 22.024028,-19.46631 31.659228,-23.40761 2.28064,-0.9329 4.29451,-1.84409 4.47529,-2.02487 0.18077,-0.18077 -1.89966,-2.56542 -4.6232,-5.29921 -4.51137,-4.52838 -4.90948,-5.07927 -4.47529,-6.19302 5.48724,-14.0752 10.08463,-24.76313 10.57439,-24.5831 0.33864,0.1245 1.47201,-1.40468 2.62398,-3.54034 2.14977,-3.98554 2.1587,-5.04963 0.0519,-6.17718 -7.12374,-3.81251 -31.12407,10.84506 -60.519094,36.96046 l -6.238167,5.54216 -1.445943,-1.44594 -1.445944,-1.44594 2.144986,-3.18318 c 14.496018,-21.51229 28.736823,-38.62564 40.721592,-48.93565 4.85492,-4.17649 12.78454,-9.7478 16.63421,-11.6871 9.66176,-4.8672 19.73226,-5.81943 26.53609,-2.50916 1.4612,0.71092 2.71236,1.21289 2.78037,1.11548 2.23307,-3.19851 11.29184,-14.984102 14.35829,-18.680349 10.01185,-12.06809 27.27463,-28.011702 40.71557,-37.604232 12.17941,-8.692195 30.41541,-18.392532 43.50728,-23.142977 9.68974,-3.515971 25.25092,-7.984465 29.75521,-8.544409 2.06287,-0.256442 6.00106,-0.800475 8.75154,-1.208963 8.24942,-1.225163 22.91225,-1.950245 27.66497,-1.368043 2.28847,0.280335 4.31383,0.663446 4.50079,0.85136 0.57295,0.575859 0.30544,17.672069 -0.36785,23.50894 -2.97694,25.807441 -11.39891,50.867619 -24.49252,72.879233 -15.43523,25.94812 -35.15978,46.99453 -62.40263,66.58457 l -6.08863,4.37828 1.17181,2.34198 c 4.12125,8.23668 2.0117,19.63149 -5.87179,31.71671 -9.49274,14.55213 -27.31869,30.51588 -53.31964,47.74954 l -8.68611,5.75723 -1.17263,-1.43374 c -0.64496,-0.78855 -1.17655,-1.54626 -1.18132,-1.68378 -0.005,-0.13752 2.16035,-2.61296 4.81138,-5.50096 23.80391,-25.93179 38.14819,-46.72038 39.04247,-56.58269 0.24401,-2.69097 0.16516,-2.9661 -1.25798,-4.38923 l -1.51831,-1.51831 -9.17543,4.44516 c -9.34828,4.5289 -23.15943,10.53674 -24.22242,10.53674 -0.32313,0 -2.63134,-2.13788 -5.12934,-4.75084 -2.49801,-2.61295 -4.64504,-4.75083 -4.77118,-4.75083 -0.12614,0 -0.49614,0.8439 -0.82222,1.87533 -1.35779,4.29497 -8.97716,16.83933 -15.71906,25.87954 -9.20618,12.34454 -15.86657,18.73547 -36.5249,35.04719 -14.446873,11.40719 -19.795601,15.94245 -29.498817,25.0125 -6.159209,5.7573 -16.84976,16.77741 -22.391074,23.08133 -1.02824,1.16975 -1.869528,2.03098 -1.869528,1.91384 0,-0.44263 6.74705,-12.27399 10.146819,-17.79307 6.521221,-10.58631 24.977351,-37.51717 28.015832,-40.8802 2.411728,-2.66932 0.175352,-1.15857 -5.156868,3.48365 -28.785265,25.06045 -61.687229,50.56432 -74.273189,57.57267 l -2.4902646,1.38668 z M 46.461494,297.5995 c 14.673143,-11.42221 43.412444,-35.20867 61.010696,-50.49631 3.16305,-2.74776 6.30504,-5.45835 6.9822,-6.02354 l 1.23118,-1.02762 -1.27064,1.75031 c -4.93735,6.8012 -26.703702,39.44517 -28.676568,43.00754 -0.228486,0.41257 0.448883,-0.26255 1.505261,-1.50027 3.864334,-4.52768 14.614977,-15.24382 19.728477,-19.66515 2.88801,-2.49708 9.18911,-7.45595 14.00245,-11.0197 15.00171,-11.10711 19.64256,-15.5536 25.12709,-24.07475 2.66195,-4.1358 7.05239,-12.77156 8.64435,-17.00298 l 1.12886,-3.00053 -3.11616,-3.45217 -3.11617,-3.45217 -15.86136,15.67317 -15.86136,15.67318 -3.82347,-3.82348 -3.82348,-3.82347 15.89493,-15.6488 15.89492,-15.6488 -4.418,-4.35795 -4.418,-4.35794 -4.50078,2.15038 c -9.12429,4.3594 -18.70708,13.79631 -32.59151,32.09534 -18.384747,24.23024 -29.65794,36.55927 -41.921559,45.84783 -4.475439,3.38975 -3.582124,3.39581 2.75048,0.0187 5.863321,-3.12686 15.387325,-9.50691 26.086162,-17.47492 4.962104,-3.69555 8.942785,-6.51593 8.845966,-6.26752 -0.09682,0.24842 -1.41375,2.64178 -2.926517,5.31859 -2.915243,5.15845 -8.778463,13.26414 -14.676955,20.29035 -3.746929,4.46329 -27.576522,28.59957 -33.581501,34.01369 -4.736386,4.27035 -3.423891,3.42114 5.751008,-3.721 z M 182.45223,212.11027 c 2.59475,-1.13493 4.64526,-2.28854 4.5567,-2.56359 -0.0886,-0.27505 -5.09765,-5.54547 -11.1313,-11.71206 l -10.97027,-11.21196 -6.0518,6.0518 -6.0518,6.0518 8.86865,9.25131 8.86865,9.2513 3.59672,-1.52756 c 1.9782,-0.84015 5.7197,-2.45612 8.31445,-3.59104 z m 30.29424,-15.29057 c 9.15249,-5.23533 25.02602,-16.05489 33.50005,-22.83397 9.33134,-7.46492 25.91668,-23.74459 32.55526,-31.95526 8.79063,-10.87235 17.12038,-23.60893 22.6381,-34.6147 l 2.56384,-5.11389 -29.07381,-29.892246 c -15.9906,-16.440729 -29.32353,-30.164143 -29.62873,-30.49647 -0.99924,-1.088037 -14.4905,5.889712 -26.44839,13.679247 -31.2634,20.365391 -56.93169,49.508149 -78.22552,88.814119 l -3.72993,6.88501 1.50683,1.87279 c 0.82875,1.03004 6.19145,6.53809 11.91709,12.24011 l 10.41027,10.36731 14.61138,-14.26953 14.61137,-14.26952 3.39178,3.58349 c 1.86548,1.97093 3.45633,3.75178 3.53522,3.95746 0.0789,0.20568 -6.27848,6.68276 -14.12748,14.39352 -7.849,7.71076 -14.27091,14.25847 -14.27091,14.55046 0,0.29199 5.27072,5.85683 11.71271,12.3663 l 11.71272,11.83541 7.67151,-3.97817 c 4.21933,-2.188 10.14432,-5.39266 13.16664,-7.12147 z m -61.27339,-11.83229 5.97897,-5.80599 -11.10466,-11.44966 c -6.10756,-6.2973 -11.30851,-11.38169 -11.55766,-11.29865 -0.24916,0.0831 -2.11011,3.80937 -4.13545,8.28071 l -3.68244,8.1297 8.87844,8.93759 c 4.88314,4.91567 9.05065,8.95439 9.26113,8.97493 0.21048,0.0205 3.07323,-2.57534 6.36167,-5.76863 z M 270.25073,35.971902 c 28.70496,-2.761645 48.75855,-6.236424 48.75855,-8.44862 0,-2.5981 -19.81544,-1.648457 -36.58805,1.753459 -8.08861,1.640578 -26.92308,7.105035 -26.92308,7.81121 0,0.251717 2.50766,0.06201 14.75258,-1.116049 z"
         id="path685" />
      <path
         style="fill:#fc0000;stroke-width:0.500088"
         d="m 9.9550926,328.10265 c 0,-0.13752 0.4500784,-0.49092 1.0001754,-0.78532 0.550096,-0.2944 1.000176,-0.42276 1.000176,-0.28524 0,0.13753 -0.45008,0.49093 -1.000176,0.78532 -0.550097,0.29441 -1.0001754,0.42277 -1.0001754,0.28524 z m 43.0075394,-3.47457 c 0,-0.10384 0.393819,-0.49767 0.875153,-0.87516 0.793169,-0.62204 0.810857,-0.60435 0.188814,0.18882 -0.6533,0.83302 -1.063967,1.09793 -1.063967,0.68634 z M 6.9545665,293.11965 c 0,-0.10545 0.4503895,-0.3095 1.0008655,-0.45345 0.550476,-0.14395 0.8747538,-0.0577 0.7206182,0.19172 -0.269173,0.43553 -1.7214837,0.65633 -1.7214837,0.26173 z m 156.0854735,-16.83961 -1.13014,-1.52861 3.41151,-3.75694 c 26.10639,-28.74969 39.62678,-48.18246 40.54148,-58.27002 0.24401,-2.69097 0.16517,-2.9661 -1.25797,-4.38923 l -1.51832,-1.51831 -9.17543,4.44516 c -8.9321,4.32726 -23.10761,10.52009 -24.15652,10.55321 -0.2869,0.009 -4.9365,-4.51928 -10.33244,-10.06296 l -9.81082,-10.07942 -15.84579,15.65779 -15.8458,15.6578 -3.82508,-3.82508 -3.82508,-3.82508 15.86054,-15.57391 15.86053,-15.57391 -9.84527,-10.22626 c -8.95739,-9.30401 -9.80357,-10.33285 -9.38288,-11.40836 5.68708,-14.53923 10.06905,-24.72329 10.56019,-24.54275 0.33864,0.1245 1.47201,-1.40468 2.62398,-3.54034 2.14977,-3.98554 2.1587,-5.04963 0.0519,-6.17718 -7.12374,-3.81251 -31.12407,10.84506 -60.519094,36.96046 l -6.238167,5.54216 -1.445943,-1.44594 -1.445944,-1.44594 2.144986,-3.18318 c 14.496018,-21.51229 28.736823,-38.62564 40.721592,-48.93565 4.85492,-4.17649 12.78454,-9.7478 16.63421,-11.6871 9.66176,-4.8672 19.73226,-5.81943 26.53609,-2.50916 1.4612,0.71092 2.71236,1.21289 2.78037,1.11548 2.23307,-3.19851 11.29184,-14.984102 14.35829,-18.680349 10.01185,-12.06809 27.27463,-28.011702 40.71557,-37.604232 12.17941,-8.692195 30.41541,-18.392532 43.50728,-23.142977 9.68974,-3.515971 25.25092,-7.984465 29.75521,-8.544409 2.06287,-0.256442 6.00106,-0.800475 8.75154,-1.208963 8.24942,-1.225163 22.91225,-1.950245 27.66497,-1.368043 2.28847,0.280335 4.31383,0.663446 4.50079,0.85136 0.57295,0.575859 0.30544,17.672069 -0.36785,23.50894 -2.97694,25.807441 -11.39891,50.867619 -24.49252,72.879233 -15.43523,25.94812 -35.15978,46.99453 -62.40263,66.58457 l -6.08863,4.37828 1.17181,2.34198 c 4.12125,8.23668 2.0117,19.63149 -5.87179,31.71671 -9.48003,14.53264 -27.32345,30.51894 -53.23132,47.69104 -4.72878,3.13431 -8.68091,5.69874 -8.78251,5.69874 -0.1016,0 -0.69329,-0.68787 -1.31487,-1.52861 z m 40.01269,-31.85225 c 0.62204,-0.79316 0.60435,-0.81085 -0.18882,-0.18881 -0.83302,0.6533 -1.09793,1.06397 -0.68634,1.06397 0.10385,0 0.49767,-0.39382 0.87516,-0.87516 z m -77.32734,-28.12993 c 1.63307,-1.65029 2.85669,-3.00052 2.71917,-3.00052 -0.13753,0 -1.58619,1.35023 -3.21926,3.00052 -1.63307,1.65029 -2.8567,3.00053 -2.71917,3.00053 0.13752,0 1.58618,-1.35024 3.21926,-3.00053 z m 56.72684,-4.18759 c 2.59475,-1.13493 4.64526,-2.28854 4.5567,-2.56359 -0.0886,-0.27505 -5.09765,-5.54547 -11.1313,-11.71206 l -10.97027,-11.21196 -6.0518,6.0518 -6.0518,6.0518 8.86865,9.25131 8.86865,9.2513 3.59672,-1.52756 c 1.9782,-0.84015 5.7197,-2.45612 8.31445,-3.59104 z m 27.86913,-1.43839 c -0.13873,-0.34381 -0.25224,-0.0625 -0.25224,0.62511 0,0.68762 0.11351,0.96891 0.25224,0.6251 0.13873,-0.34381 0.13873,-0.9064 0,-1.25021 z m -72.59387,-2.87551 c 1.63307,-1.65028 2.8567,-3.00052 2.71918,-3.00052 -0.13753,0 -1.58619,1.35024 -3.21927,3.00052 -1.63307,1.65029 -2.85669,3.00053 -2.71917,3.00053 0.13753,0 1.58619,-1.35024 3.21926,-3.00053 z m 75.01898,-10.97667 c 9.15249,-5.23533 25.02602,-16.05489 33.50005,-22.83397 9.33134,-7.46492 25.91668,-23.74459 32.55526,-31.95526 8.79063,-10.87235 17.12038,-23.60893 22.6381,-34.6147 l 2.56384,-5.11389 -29.07381,-29.892246 c -15.9906,-16.440729 -29.32353,-30.164143 -29.62873,-30.49647 -0.99924,-1.088037 -14.4905,5.889712 -26.44839,13.679247 -31.2634,20.365391 -56.93169,49.508149 -78.22552,88.814119 l -3.72993,6.88501 1.50683,1.87279 c 0.82875,1.03004 6.19145,6.53809 11.91709,12.24011 l 10.41027,10.36731 14.61138,-14.26953 14.61137,-14.26952 3.39178,3.58349 c 1.86548,1.97093 3.45633,3.75178 3.53522,3.95746 0.0789,0.20568 -6.27848,6.68276 -14.12748,14.39352 -7.849,7.71076 -14.27091,14.25847 -14.27091,14.55046 0,0.29199 5.27072,5.85683 11.71271,12.3663 l 11.71272,11.83541 7.67151,-3.97817 c 4.21933,-2.188 10.14432,-5.39266 13.16664,-7.12147 z m -59.01617,-8.02666 c 1.63307,-1.65029 2.8567,-3.00053 2.71917,-3.00053 -0.13752,0 -1.58619,1.35024 -3.21926,3.00053 -1.63307,1.65029 -2.85669,3.00053 -2.71917,3.00053 0.13753,0 1.58619,-1.35024 3.21926,-3.00053 z m -2.25722,-3.80563 5.97897,-5.80599 -11.10466,-11.44966 c -6.10756,-6.2973 -11.30851,-11.38169 -11.55766,-11.29865 -0.24916,0.0831 -2.11011,3.80937 -4.13545,8.28071 l -3.68244,8.1297 8.87844,8.93759 c 4.88314,4.91567 9.05065,8.95439 9.26113,8.97493 0.21048,0.0205 3.07323,-2.57534 6.36167,-5.76863 z m 13.75924,-4.19577 c 1.63306,-1.65029 2.85669,-3.00053 2.71917,-3.00053 -0.13753,0 -1.58619,1.35024 -3.21926,3.00053 -1.63307,1.65029 -2.8567,3.00053 -2.71917,3.00053 0.13752,0 1.58619,-1.35024 3.21926,-3.00053 z m 16.0028,-19.00333 c 1.63307,-1.6503 2.8567,-3.00053 2.71917,-3.00053 -0.13752,0 -1.58618,1.35023 -3.21926,3.00053 -1.63307,1.65029 -2.85669,3.00052 -2.71917,3.00052 0.13753,0 1.58619,-1.35023 3.21926,-3.00052 z m 9.8155,-6.37612 c 0.62204,-0.79317 0.60436,-0.81086 -0.18881,-0.18882 -0.83302,0.6533 -1.09793,1.06397 -0.68634,1.06397 0.10384,0 0.49766,-0.39382 0.87515,-0.87515 z m -59.20957,-21.93093 c -0.16618,-0.16618 -0.59751,-0.18394 -0.95851,-0.0394 -0.39893,0.15964 -0.28044,0.27814 0.30214,0.30214 0.52717,0.0217 0.82254,-0.0965 0.65637,-0.26266 z M 284.00314,74.132288 c 0,-0.07738 -1.4065,-1.48387 -3.12555,-3.125549 l -3.12554,-2.984874 2.98487,3.125549 c 2.77269,2.903368 3.26622,3.354385 3.26622,2.984874 z m 34.34758,-20.456686 c -0.15964,-0.398937 -0.27814,-0.280438 -0.30213,0.302136 -0.0217,0.527175 0.0965,0.82254 0.26265,0.656365 0.16618,-0.166175 0.18394,-0.597501 0.0394,-0.958501 z M 255.99823,45.62586 c 0,-0.07816 -1.29398,-1.372134 -2.87551,-2.875504 l -2.8755,-2.7334 2.7334,2.875505 c 2.53942,2.671434 3.01761,3.104591 3.01761,2.733399 z m 18.00316,-9.895947 c 22.97067,-2.412439 41.61753,-5.439039 44.2873,-7.188341 0.70573,-0.462415 1.10062,-1.066532 0.90453,-1.383806 -0.23588,-0.381675 -0.0445,-0.446643 0.59393,-0.201643 0.51807,0.198803 0.76135,0.180786 0.54063,-0.04004 -0.60277,-0.60303 -2.39564,-0.729408 -9.94425,-0.700962 -11.93498,0.04498 -26.14826,2.154278 -39.38267,5.844533 -7.69044,2.144386 -15.50271,4.695537 -15.50271,5.062515 0,0.349407 6.76967,-0.159971 18.50324,-1.392259 z m 45.84959,-2.557907 c -0.15964,-0.398936 -0.27813,-0.280437 -0.30213,0.302137 -0.0217,0.527175 0.0965,0.82254 0.26266,0.656365 0.16617,-0.166175 0.18393,-0.597501 0.0394,-0.958502 z"
         id="path683" />
      <path
         style="fill:#060403;stroke-width:0.500088"
         d="m 163.04004,276.28004 -1.13014,-1.52861 3.41151,-3.75694 c 26.10639,-28.74969 39.62678,-48.18246 40.54148,-58.27002 0.24401,-2.69097 0.16517,-2.9661 -1.25797,-4.38923 l -1.51832,-1.51831 -9.17543,4.44516 c -8.9321,4.32726 -23.10761,10.52009 -24.15652,10.55321 -0.2869,0.009 -4.9365,-4.51928 -10.33244,-10.06296 l -9.81082,-10.07942 -15.84579,15.65779 -15.8458,15.6578 -3.82508,-3.82508 -3.82508,-3.82508 15.86054,-15.57391 15.86053,-15.57391 -9.84527,-10.22626 c -8.95739,-9.30401 -9.80357,-10.33285 -9.38288,-11.40836 5.68708,-14.53923 10.06905,-24.72329 10.56019,-24.54275 0.33864,0.1245 1.47201,-1.40468 2.62398,-3.54034 2.14977,-3.98554 2.1587,-5.04963 0.0519,-6.17718 -7.12374,-3.81251 -31.12407,10.84506 -60.519094,36.96046 l -6.238167,5.54216 -1.445943,-1.44594 -1.445944,-1.44594 2.144986,-3.18318 c 14.496018,-21.51229 28.736823,-38.62564 40.721592,-48.93565 4.85492,-4.17649 12.78454,-9.7478 16.63421,-11.6871 9.66176,-4.8672 19.73226,-5.81943 26.53609,-2.50916 1.4612,0.71092 2.71236,1.21289 2.78037,1.11548 2.23307,-3.19851 11.29184,-14.984102 14.35829,-18.680349 10.01185,-12.06809 27.27463,-28.011702 40.71557,-37.604232 12.17941,-8.692195 30.41541,-18.392532 43.50728,-23.142977 9.68974,-3.515971 25.25092,-7.984465 29.75521,-8.544409 2.06287,-0.256442 6.00106,-0.800475 8.75154,-1.208963 8.24942,-1.225163 22.91225,-1.950245 27.66497,-1.368043 2.28847,0.280335 4.31383,0.663446 4.50079,0.85136 0.57295,0.575859 0.30544,17.672069 -0.36785,23.50894 -2.97694,25.807441 -11.39891,50.867619 -24.49252,72.879233 -15.43523,25.94812 -35.15978,46.99453 -62.40263,66.58457 l -6.08863,4.37828 1.17181,2.34198 c 4.12125,8.23668 2.0117,19.63149 -5.87179,31.71671 -9.48003,14.53264 -27.32345,30.51894 -53.23132,47.69104 -4.72878,3.13431 -8.68091,5.69874 -8.78251,5.69874 -0.1016,0 -0.69329,-0.68787 -1.31487,-1.52861 z m 20.0834,-16.04737 c 15.3982,-11.17517 31.34553,-26.01813 37.80101,-35.18327 8.14947,-11.57016 10.92486,-21.75753 8.03311,-29.48642 -0.56986,-1.52308 -1.14757,-2.76924 -1.28382,-2.76924 -0.13624,0 -2.76429,1.53972 -5.84009,3.4216 -3.07582,1.88187 -7.50523,4.49918 -9.84313,5.81623 -2.33791,1.31704 -4.31813,2.45142 -4.40049,2.52082 -0.0824,0.0694 0.42398,0.97162 1.1252,2.00492 1.54294,2.27365 1.7297,6.51578 0.47437,10.77499 -2.5772,8.74412 -13.06227,24.55572 -27.43654,41.37461 -2.63202,3.07965 -4.66335,5.59937 -4.51406,5.59937 0.14929,0 2.79729,-1.83312 5.88444,-4.07361 z m -50.64687,-47.43221 c 13.40228,-13.11803 14.20217,-14.00114 13.40883,-14.80375 -0.79357,-0.80285 -1.69175,-0.0275 -15.12765,13.05888 -7.85619,7.65182 -14.28399,14.05449 -14.28399,14.22815 0,0.40116 1.1106,1.52395 1.47526,1.49146 0.15128,-0.0135 6.68868,-6.30211 14.52755,-13.97474 z m 49.97566,-0.69019 c 2.59475,-1.13493 4.64526,-2.28854 4.5567,-2.56359 -0.0886,-0.27505 -5.09765,-5.54547 -11.1313,-11.71206 l -10.97027,-11.21196 -6.0518,6.0518 -6.0518,6.0518 8.86865,9.25131 8.86865,9.2513 3.59672,-1.52756 c 1.9782,-0.84015 5.7197,-2.45612 8.31445,-3.59104 z m 30.29424,-15.29057 c 9.15249,-5.23533 25.02602,-16.05489 33.50005,-22.83397 9.33134,-7.46492 25.91668,-23.74459 32.55526,-31.95526 8.79063,-10.87235 17.12038,-23.60893 22.6381,-34.6147 l 2.56384,-5.11389 -29.07381,-29.892246 c -15.9906,-16.440729 -29.32353,-30.164143 -29.62873,-30.49647 -0.99924,-1.088037 -14.4905,5.889712 -26.44839,13.679247 -31.2634,20.365391 -56.93169,49.508149 -78.22552,88.814119 l -3.72993,6.88501 1.50683,1.87279 c 0.82875,1.03004 6.19145,6.53809 11.91709,12.24011 l 10.41027,10.36731 14.61138,-14.26953 14.61137,-14.26952 3.39178,3.58349 c 1.86548,1.97093 3.45633,3.75178 3.53522,3.95746 0.0789,0.20568 -6.27848,6.68276 -14.12748,14.39352 -7.849,7.71076 -14.27091,14.25847 -14.27091,14.55046 0,0.29199 5.27072,5.85683 11.71271,12.3663 l 11.71272,11.83541 7.67151,-3.97817 c 4.21933,-2.188 10.14432,-5.39266 13.16664,-7.12147 z m -35.61971,-27.9856 c 12.82208,-12.6722 14.31259,-14.30892 13.64162,-14.97988 -0.90304,-0.90305 0.0258,-1.75151 -25.14295,22.96675 -16.46035,16.16572 -17.55544,17.34942 -16.77367,18.13118 0.94523,0.94523 0.12492,1.70297 28.275,-26.11805 z m -25.65368,16.15331 5.97897,-5.80599 -11.10466,-11.44966 c -6.10756,-6.2973 -11.30851,-11.38169 -11.55766,-11.29865 -0.24916,0.0831 -2.11011,3.80937 -4.13545,8.28071 l -3.68244,8.1297 8.87844,8.93759 c 4.88314,4.91567 9.05065,8.95439 9.26113,8.97493 0.21048,0.0205 3.07323,-2.57534 6.36167,-5.76863 z M 93.969821,154.51037 c 11.103159,-8.63795 22.631399,-15.91167 29.661849,-18.71509 7.04521,-2.80929 11.91527,-2.95455 15.41871,-0.45988 l 1.33207,0.94852 1.6167,-2.87555 c 1.37571,-2.44693 7.53229,-12.43958 9.84127,-15.97324 0.67891,-1.03899 0.60412,-1.15342 -1.4476,-2.21495 -2.94662,-1.52454 -9.45393,-1.86813 -13.93446,-0.73573 -14.45171,3.65246 -33.2565,19.92546 -52.062965,45.05346 -5.146734,6.87674 -5.150052,6.90155 -0.395107,2.95125 2.320185,-1.92757 6.806477,-5.51802 9.969533,-7.97879 z M 307.83398,93.508681 c 0.67154,-1.640575 3.21676,-9.959092 5.65605,-18.48559 l 4.43508,-15.502715 1.18355,-16.415515 c 0.80317,-11.139723 1.01757,-16.520798 0.66711,-16.7431 -0.95275,-0.604329 -15.94653,-0.181591 -23.02039,0.649043 -9.48677,1.113964 -17.85801,2.824012 -28.00491,5.720748 -8.16929,2.332166 -17.51296,5.650007 -18.45244,6.552269 -0.46892,0.450348 55.11897,57.43167 55.88695,57.287879 0.23541,-0.04406 0.97746,-1.422434 1.649,-3.063019 z"
         id="path681" />
    </g>
  </g>
</svg>
