<?xml version="1.0" encoding="UTF-8" standalone="no"?>
<!-- Created with Inkscape (http://www.inkscape.org/) -->

<svg
   width="31.88" 
   height="32"
   viewBox="0 0 92.604164 92.604169"
   version="1.1"
   id="svg5"
   inkscape:version="1.1.2 (0a00cf5339, 2022-02-04)"
   sodipodi:docname="marcaIconoPErsonal.svg"
   inkscape:export-filename="/home/deltecharch/Personal2.png"
   inkscape:export-xdpi="96"
   inkscape:export-ydpi="96"
   xmlns:inkscape="http://www.inkscape.org/namespaces/inkscape"
   xmlns:sodipodi="http://sodipodi.sourceforge.net/DTD/sodipodi-0.dtd"
   xmlns="http://www.w3.org/2000/svg"
   xmlns:svg="http://www.w3.org/2000/svg">
  <sodipodi:namedview
     id="namedview7"
     pagecolor="#ffffff"
     bordercolor="#666666"
     borderopacity="1.0"
     inkscape:pageshadow="2"
     inkscape:pageopacity="0.0"
     inkscape:pagecheckerboard="0"
     inkscape:document-units="mm"
     showgrid="false"
     units="px"
     inkscape:snap-to-guides="true"
     inkscape:snap-grids="true"
     inkscape:snap-text-baseline="false"
     inkscape:snap-center="true"
     inkscape:zoom="0.69664701"
     inkscape:cx="-212.44619"
     inkscape:cy="195.93854"
     inkscape:window-width="1920"
     inkscape:window-height="1016"
     inkscape:window-x="0"
     inkscape:window-y="0"
     inkscape:window-maximized="1"
     inkscape:current-layer="g31" />
  <defs
     id="defs2">
    <linearGradient
       x1="0"
       y1="0"
       x2="0.058714766"
       y2="0.35982904"
       gradientUnits="userSpaceOnUse"
       gradientTransform="matrix(-7.63e-5,1850.9673,1850.9673,7.63e-5,1000.0002,163.93311)"
       spreadMethod="pad"
       id="linearGradient49">
      <stop
         style="stop-opacity:1;stop-color:#00a2ff"
         offset="0"
         id="stop45" />
      <stop
         style="stop-opacity:1;stop-color:#00e7ff"
         offset="1"
         id="stop47" />
    </linearGradient>
    <clipPath
       clipPathUnits="userSpaceOnUse"
       id="clipPath59">
      <path
         d="M 0,2000 H 2000 V 0 H 0 Z"
         id="path57" />
    </clipPath>
    <clipPath
       clipPathUnits="userSpaceOnUse"
       id="clipPath75">
      <path
         d="m 780.751,1252.564 c -32.186,25.541 -72.897,40.802 -117.177,40.802 v 0 c -104.197,0 -188.666,-84.469 -188.666,-188.666 v 0 c 0,-25.645 5.127,-50.088 14.394,-72.377 v 0 C 391.476,997.2 321.503,903.641 321.503,793.726 v 0 c 0,-137.436 109.393,-249.312 245.855,-253.329 v 0 -0.123 h 829.182 c 155.721,0 281.957,126.237 281.957,281.957 v 0 c 0,155.721 -126.236,281.957 -281.957,281.957 v 0 c -8.652,0 -17.206,-0.412 -25.658,-1.174 v 0 c 2.837,16.721 4.319,33.905 4.319,51.432 v 0 c 0,168.603 -136.679,305.282 -305.279,305.282 v 0 c -134.279,0 -248.307,-86.695 -289.171,-207.164"
         id="path73" />
    </clipPath>
  </defs>
  <g
     inkscape:label="Capa 1"
     inkscape:groupmode="layer"
     id="layer1">
    <g
       id="g31"
       inkscape:label="cloud-2823072"
       transform="matrix(0.35277777,0,0,-0.35277777,-903.99747,310.41336)">
      <g
         id="g33">
        <g
           id="g35">
          <g
             id="g41">
            <g
               id="g43" />
          </g>
        </g>
      </g>
      <g
         id="g69">
        <g
           id="g71"
           clip-path="url(#clipPath75)">
          <text
             transform="matrix(1,0,0,-1,55.4243,1403.5469)"
             style="font-variant:normal;font-weight:normal;font-stretch:normal;font-size:125.475px;font-family:'Myriad Pro';-inkscape-font-specification:MyriadPro-Regular;writing-mode:lr-tb;fill:#ffffff;fill-opacity:1;fill-rule:nonzero;stroke:none"
             id="text91"><tspan
               x="0 64.368622 128.73724 193.10587 257.47449 321.84311 386.21173 450.58035 514.94897 579.31763 643.68622 708.05487 772.42346 836.79211 901.16071 965.52936 1029.8979 1094.2666 1158.6353 1223.0039 1287.3724 1351.7411 1416.1097 1480.4784 1544.8469 1609.2156 1673.5842 1737.9529 1802.3214 1866.6901"
               y="0"
               sodipodi:role="line"
               id="tspan77">100101010101000101010101111000</tspan><tspan
               x="0 64.368622 128.73724 193.10587 257.47449 321.84311 386.21173 450.58035 514.94897 579.31763 643.68622 708.05487 772.42346 836.79211 901.16071 965.52936 1029.8979 1094.2666 1158.6353 1223.0039 1287.3724 1351.7411 1416.1097 1480.4784 1544.8469 1609.2156 1673.5842 1737.9529 1802.3214 1866.6901 1931.0587"
               y="150.56989"
               sodipodi:role="line"
               id="tspan79">0101010101110101010001010101010</tspan><tspan
               x="0 64.368622 128.73724 193.10587 257.47449 321.84311 386.21173 450.58035 514.94897 579.31763 643.68622 708.05487 772.42346 836.79211 901.16071 965.52936 1029.8979 1094.2666 1158.6353 1223.0039 1287.3724 1351.7411 1416.1097 1480.4784 1544.8469 1609.2156 1673.5842 1737.9529 1802.3214 1866.6901 1931.0587 1995.4274"
               y="301.13977"
               sodipodi:role="line"
               id="tspan81">01010101110101010101001010101010</tspan><tspan
               x="0 64.368622 128.73724 193.10587 257.47449 321.84311 386.21173 450.58035 514.94897 579.31763 643.68622 708.05487 772.42346 836.79211 901.16071 965.52936 1029.8979 1094.2666 1158.6353 1223.0039 1287.3724 1351.7411 1416.1097 1480.4784 1544.8469 1609.2156 1673.5842 1737.9529 1802.3214 1866.6901 1931.0587 1995.4274"
               y="451.70963"
               sodipodi:role="line"
               id="tspan83">01010000101010101010101110101010</tspan><tspan
               x="0 64.368622 128.73724 193.10587 257.47449 321.84311 386.21173 450.58035 514.94897 579.31763 643.68622 708.05487 772.42346 836.79211 901.16071 965.52936 1029.8979 1094.2666 1158.6353 1223.0039 1287.3724 1351.7411 1416.1097 1480.4784 1544.8469 1609.2156 1673.5842 1737.9529 1802.3214 1866.6901 1931.0587 1995.4274"
               y="602.27954"
               sodipodi:role="line"
               id="tspan85">00100101010101010101010001010101</tspan><tspan
               x="0 64.368622 128.73724 193.10587 257.47449 321.84311 386.21173 450.58035 514.94897 579.31763 643.68622 708.05487 772.42346 836.79211 901.16071 965.52936 1029.8979 1094.2666 1158.6353 1223.0039 1287.3724 1351.7411 1416.1097 1480.4784 1544.8469 1609.2156 1673.5842 1737.9529 1802.3214 1866.6901 1931.0587 1995.4274"
               y="752.84943"
               sodipodi:role="line"
               id="tspan87">00101010101011110101010101010101</tspan><tspan
               x="0 64.368622 128.73724 193.10587 257.47449 321.84311 386.21173 450.58035 514.94897 579.31763 643.68622 708.05487 772.42346 836.79211 901.16071 965.52936 1029.8979 1094.2666 1158.6353 1223.0039 1287.3724 1351.7411 1416.1097 1480.4784 1544.8469 1609.2156 1673.5842 1737.9529 1802.3214 1866.6901 1931.0587 1995.4274"
               y="903.41925"
               sodipodi:role="line"
               id="tspan89">11101010101010101010101010101010</tspan></text>
        </g>
      </g>
      <g
         id="g513"
         transform="matrix(0.6481843,0,0,-0.6481843,2495.4418,902.10106)"
         inkscape:export-filename="/home/deltecharch/icono.png"
         inkscape:export-xdpi="96"
         inkscape:export-ydpi="96">
        <path
           d="m 372.93488,336.81619 c 0,0 -30.965,16.684 -78.454,33.213 -28.683,10 -79.628,-6.867 -106.15,-13.891 -26.563,-7.049 -72.459,-21.629 -59.724,-34.364 12.736,-12.732 49.354,-39.888 49.354,-39.888 0,0 -34.865,57.573 194.98,54.93 z"
           fill="#ffffff"
           stroke="#cccccc"
           stroke-width="15.477"
           id="path465"
           style="fill:#000000" />
        <path
           d="m 160.98488,294.94619 c 0,24.282 72.646,43.974 162.27,43.974 89.617,0 162.25,-19.689 162.25,-43.974 -18.691,-13.548 -15.986,-24.954 -15.986,-24.954 h -293.31 c 0.01,-3e-5 2.605,11.406 -15.23,24.954 z"
           fill="#ffffff"
           stroke="#cccccc"
           stroke-width="15.477"
           id="path467"
           style="fill:#000000" />
        <path
           d="m 451.67488,183.06619 c -3.628,-8.278 -17.685,-36.869 -46.261,-56.996 -51.803,-36.532002 -116.04,-29.563002 -153.81,-7.634 -25.523,14.848 -43.106,33.982 -57.037,62.074 -3.4,6.862 -9.738,21.504 -14.082,42.451 -3.759,18.168 -4.121,29.625 -4.726,48.653 0.03,15.899 30.204,30.239 82.196,37.222 72.762,9.744 160.7,1.28 196.39,-18.902 10.213,-5.772 15.034,-11.914 15.014,-17.896 -0.75302,-24.585 -1.662,-52.437 -17.687,-88.972 z"
           fill="#ffffff"
           id="path469" />
        <path
           d="m 451.67488,183.06619 c -3.628,-8.278 -17.685,-36.869 -46.261,-56.996 -51.803,-36.532002 -116.04,-29.563002 -153.81,-7.634 -25.523,14.848 -43.106,33.982 -57.037,62.074 -3.4,6.862 -9.738,21.504 -14.082,42.451 -3.759,18.168 -4.121,29.625 -4.726,48.653 0.03,15.899 30.204,30.239 82.196,37.222 72.762,9.744 160.7,1.28 196.39,-18.902 10.213,-5.772 15.034,-11.914 15.014,-17.896 -0.75302,-24.585 -1.662,-52.437 -17.687,-88.972 z"
           fill="#ffffff"
           stroke="#cccccc"
           stroke-width="15.477"
           id="path471"
           style="fill:#000000" />
        <path
           d="m 451.66687,183.07557 c -3.628,-8.272 -17.692,-36.851 -46.26,-56.997 -51.798,-36.531001 -116.03,-29.554002 -153.81,-7.628 -25.539,14.849 -43.112,33.981 -57.032,62.05 -3.406,6.862 -9.759,21.504 -14.082,42.462 -3.748,18.156 -4.115,29.623 -4.729,48.627 0.021,15.9 30.219,30.264 82.218,37.223 72.76,9.769 160.69,1.279 196.37,-18.903 10.213,-5.772 15.044,-11.892 15.022,-17.896 -0.78,-24.546 -1.692,-52.402 -17.698,-88.938 z"
           fill="#ffffff"
           id="path477"
           style="fill:#000000" />
        <path
           d="m 399.88488,119.84619 c -73.2707,-46.722595 -147.27834,2.49223 -186.85345,67.61013 -19.28197,31.72705 -30.39007,67.2293 -29.25655,97.24987 l -10.137,4.09 c 0.005,-99.891 108.25,-247.130002 226.24,-168.95"
           fill="#ffffff"
           id="path483"
           sodipodi:nodetypes="csccc" />
        <polygon
           points="149.2,312.15 154.73,297.15 164.86,293.06 "
           fill="#ffffff"
           id="polygon485"
           transform="translate(18.914886,-8.3438123)"
           style="fill:#000000" />
      </g>
      <g
         id="g4300"
         transform="matrix(0.39996885,0,0,-0.39996885,2333.563,692.91155)">
        <g
           id="g4290"
           style="fill:#800080"
           transform="matrix(0.74078592,0,0,0.74078592,261.72007,-552.40498)"
           inkscape:export-filename="/home/deltecharch/icono.png"
           inkscape:export-xdpi="96"
           inkscape:export-ydpi="96">
          <path
             class="st0"
             d="m 764.76588,512.19595 -106.03391,64.52722 106.03391,64.52721 v 55.03997 l -130.44961,-85.0364 v -69.06157 l 130.44961,-85.0364 z"
             id="path4288"
             style="fill:#800080;stroke-width:0.697592" />
        </g>
        <g
           id="g4298"
           style="fill:#00ffff"
           transform="matrix(0.838678,0,0,0.82881742,438.27977,-593.97788)"
           inkscape:export-filename="/home/deltecharch/icono.png"
           inkscape:export-xdpi="96"
           inkscape:export-ydpi="96">
          <path
             class="st0"
             d="m 647,340.6 187,121.9 v 99 L 647,683.4 V 604.5 L 799,512 647,419.5 Z"
             id="path4296"
             style="fill:#00ffff" />
        </g>
        <text
           xml:space="preserve"
           style="font-style:normal;font-weight:normal;font-size:174.092px;line-height:1.25;font-family:sans-serif;fill:#d40000;fill-opacity:1;stroke:none;stroke-width:4.3523"
           x="840.57751"
           y="-68.122078"
           id="text57126"
           inkscape:export-filename="/home/deltecharch/icono.png"
           inkscape:export-xdpi="96"
           inkscape:export-ydpi="96"><tspan
             sodipodi:role="line"
             id="tspan57124"
             style="font-style:normal;font-variant:normal;font-weight:normal;font-stretch:normal;font-size:174.092px;font-family:Sahadeva;-inkscape-font-specification:'Sahadeva, Normal';font-variant-ligatures:normal;font-variant-caps:normal;font-variant-numeric:normal;font-variant-east-asian:normal;fill:#d40000;stroke-width:4.3523"
             x="840.57751"
             y="-68.122078">D</tspan></text>
      </g>
    </g>
  </g>
  <style
     type="text/css"
     id="style4286"> .st0{fill:#157FFF;} </style>
</svg>
